<?xml version="1.0" standalone="no"?><!DOCTYPE svg PUBLIC "-//W3C//DTD SVG 1.1//EN" "http://www.w3.org/Graphics/SVG/1.1/DTD/svg11.dtd"><svg t="1547397664312" class="icon" style="" viewBox="0 0 1024 1024" version="1.1" xmlns="http://www.w3.org/2000/svg" p-id="1561" xmlns:xlink="http://www.w3.org/1999/xlink" width="200" height="200"><defs><style type="text/css"></style></defs><path d="M280 259.2c-5.5 0-10-4.5-10-10V135.5c0-22.1 17.9-40 40-40h405c22.1 0 40 17.9 40 40v110.7c0 5.5-4.5 10-10 10s-10-4.5-10-10V135.5c0-11-9-20-20-20H310c-11 0-20 9-20 20v113.7c0 5.6-4.5 10-10 10z" p-id="1562"></path><path d="M920 923.5h-26c-5.5 0-10-4.5-10-10s4.5-10 10-10h26c11 0 20-9 20-20v-597c0-11-9-20-20-20H109c-11 0-20 9-20 20v226c0 5.5-4.5 10-10 10s-10-4.5-10-10v-226c0-22.1 17.9-40 40-40h811c22.1 0 40 17.9 40 40v597c0 22.1-17.9 40-40 40z m-154 0H109c-22.1 0-40-17.9-40-40V640c0-5.5 4.5-10 10-10s10 4.5 10 10v243.5c0 11 9 20 20 20h657c5.5 0 10 4.5 10 10s-4.5 10-10 10z" p-id="1563"></path><path d="M80 577.5m-16 0a16 16 0 1 0 32 0 16 16 0 1 0-32 0Z" p-id="1564"></path><path d="M832 912.5m-16 0a16 16 0 1 0 32 0 16 16 0 1 0-32 0Z" p-id="1565"></path><path d="M942 494.5H83c-5.5 0-10-4.5-10-10s4.5-10 10-10h859c5.5 0 10 4.5 10 10s-4.5 10-10 10z" p-id="1566"></path><path d="M512 662.6c-97.1 0-176.1-79.1-176.1-176.3 0-5.5 4.5-10 10-10h332.3c5.5 0 10 4.5 10 10-0.1 97.3-79.1 176.3-176.2 176.3zM356.2 496.4c5.2 81.5 73.1 146.3 155.8 146.3 82.7 0 150.7-64.7 155.8-146.3H356.2z" p-id="1567"></path></svg>